# xmcd
#
# Track frame offsets: 
#        6672
#        18037
#        31437
#        42402
#        55037
#        69082
#        81802
#        92237
#        104702
#        117177
#        132692
#        146282
#        158177
#        168567
#        180147
#        193187
#        206622
#        219307
#        231107
#        242442
#        253652
#        266502
#        280262
#        295572
#        309022
#        325027
#        337217
#
# Disc length: 4655 seconds
#
# Revision: 5
# Processed by: cddbd v1.5.2PL0 Copyright (c) Steve Scherf et al.
# Submitted via: ExactAudioCopyFreeDBPlugin 1.0
#
DISCID=8911d71b
DTITLE=Marvin Gaye and Tammi Terrell - The Complete Duets
DYEAR=2001
DGENRE=Soul
TTITLE0=Ain't No Mountain High Enough
TTITLE1=You Got What It Takes
TTITLE2=If I Could Build My Whole World Around You
TTITLE3=Somethin' Stupid
TTITLE4=Your Precious Love
TTITLE5=Hold Me Oh My Darling
TTITLE6=Two Can Have a Party
TTITLE7=Little Boy, Little Ole Girl
TTITLE8=If This World Were Mine
TTITLE9=Sad Wedding
TTITLE10=Give a Little Love
TTITLE11=Oh How I'd Miss You
TTITLE12=Ain't Nothing Like the Real Thing
TTITLE13=Keep on Lovin' Me Honey
TTITLE14=You're All I Need to Get By
TTITLE15=Baby Don'tcha Worry
TTITLE16=You Ain't Livin' Till You're Lovin'
TTITLE17=Give In, You Just Can't Win
TTITLE18=When Loves Comes Knocking at My Heart
TTITLE19=Come On and See Me
TTITLE20=I Can't Help But Love You
TTITLE21=That's How It Is (Since You've Been Gone)
TTITLE22=I'll Never Stop Loving You Baby
TTITLE23=Memory Chest
TTITLE24=Ain't Nothing Like the Real Thing  (alternate take)
TTITLE25=Keep on Lovin' Me Honey (alternate vocal)
TTITLE26=We'll Be Satisfied
EXTD=Disc 1 of 2\nMotown Records\nCopyright 2001 ID3G:  17
EXTT0='United'
EXTT1='United'
EXTT2='United'
EXTT3='United'
EXTT4='United'
EXTT5='United'
EXTT6='United'
EXTT7='United'
EXTT8='United'
EXTT9='United'
EXTT10='United'
EXTT11='United'
EXTT12='You're All I Need'
EXTT13='You're All I Need'
EXTT14='You're All I Need'
EXTT15='You're All I Need'
EXTT16='You're All I Need'
EXTT17='You're All I Need'
EXTT18='You're All I Need'
EXTT19='You're All I Need'
EXTT20='You're All I Need'
EXTT21='You're All I Need'
EXTT22='You're All I Need'
EXTT23='You're All I Need'
EXTT24=Previously Unreleased Duets
EXTT25=Previously Unreleased Duets
EXTT26=Previously Unreleased Duets
PLAYORDER=
